# xmcd
#
# Track frame offsets:
#	150
#	15611
#	34034
#	57899
#	74023
#	88431
#	103121
#	119981
#	133709
#	148154
#	165416
#	182746
#	200432
#	217680
#	236650
#
# Disc length: 4332 seconds
#
# Revision: 0
# Processed by: cddbd v1.5.2PL0 Copyright (c) Steve Scherf et al.
# Submitted via: EasyCDDAExtractor 10.1.0.1
#
DISCID=e310ea0f
DTITLE=Various Artist - CBE5-28
DYEAR=1900
DGENRE=Karaoke
TTITLE0=David Lee Murphy - Party Crowd
TTITLE1=Rhett Akins - That Ain't My Truck
TTITLE2=Wynonna - To Be Loved By You
TTITLE3=Brooks and Dunn - My Maria
TTITLE4=Shania Twain - Come On Over
TTITLE5=Tracy Lawrence - Time Marches On
TTITLE6=Lee Ann Womack - The Fool
TTITLE7=Daryle Singletary - Too Much Fun
TTITLE8=Dixie Chicks - I Can Love You Better
TTITLE9=Lila McCann - I Wanna Fall In Love
TTITLE10=Shania Twain - You're Still The One
TTITLE11=Garth Brooks - Two Pina Coladas
TTITLE12=LeAnn Rimes - Can't Fight The Moonlight
TTITLE13=Cleus T Judd - My Cellmate Thinks I'm Sexy
TTITLE14=The Browns - Looking Back To See
EXTD=
EXTT0=
EXTT1=
EXTT2=
EXTT3=
EXTT4=
EXTT5=
EXTT6=
EXTT7=
EXTT8=
EXTT9=
EXTT10=
EXTT11=
EXTT12=
EXTT13=
EXTT14=
PLAYORDER=
